<svg xmlns="http://www.w3.org/2000/svg" height="511pt" version="1.1" viewBox="-44 1 511 511.99999" width="511pt">
<g id="surface1">
<path d="M 150.570312 459.035156 L 362.429688 459.035156 L 362.429688 247.171875 C 362.5 364.113281 267.757812 458.964844 150.816406 459.035156 C 150.734375 459.035156 150.652344 459.035156 150.570312 459.035156 Z M 150.570312 459.035156 " style=" stroke:none;fill-rule:nonzero;fill:rgb(60.784314%,98.431373%,100%);fill-opacity:1;" />
<path d="M 62.292969 52.964844 L 62.292969 459.035156 L 150.566406 459.035156 C 267.507812 459.101562 362.363281 364.359375 362.429688 247.417969 C 362.429688 247.335938 362.429688 247.253906 362.429688 247.171875 L 362.429688 52.964844 Z M 62.292969 52.964844 " style=" stroke:none;fill-rule:nonzero;fill:rgb(74.117647%,99.215686%,100%);fill-opacity:1;" />
<path d="M 362.429688 26.484375 C 362.429688 15.808594 346.621094 0 327.121094 0 L 97.601562 0 C 78.101562 0 62.292969 15.808594 62.292969 35.3125 L 62.292969 52.964844 L 362.429688 52.964844 Z M 362.429688 26.484375 " style=" stroke:none;fill-rule:nonzero;fill:rgb(34.509804%,34.901961%,35.686275%);fill-opacity:1;" />
<path d="M 62.292969 485.515625 C 62.292969 496.191406 78.101562 512 97.601562 512 L 327.121094 512 C 346.621094 512 362.429688 496.191406 362.429688 476.6875 L 362.429688 459.035156 L 62.292969 459.035156 Z M 62.292969 485.515625 " style=" stroke:none;fill-rule:nonzero;fill:rgb(34.509804%,34.901961%,35.686275%);fill-opacity:1;" />
<path d="M 282.984375 203.035156 L 18.15625 203.035156 C 8.417969 203.0625 0.527344 210.949219 0.5 220.6875 L 0.5 379.585938 C 0.527344 389.324219 8.417969 397.210938 18.15625 397.242188 L 282.984375 397.242188 C 292.722656 397.210938 300.609375 389.324219 300.636719 379.585938 L 300.636719 220.6875 C 300.609375 210.949219 292.722656 203.0625 282.984375 203.035156 Z M 247.671875 361.929688 C 237.921875 361.929688 230.015625 354.027344 230.015625 344.277344 C 230.015625 354.027344 222.113281 361.929688 212.363281 361.929688 C 202.613281 361.929688 194.707031 354.027344 194.707031 344.277344 C 194.707031 334.523438 202.613281 326.621094 212.363281 326.621094 C 222.113281 326.621094 230.015625 334.523438 230.015625 344.277344 C 230.015625 334.523438 237.921875 326.621094 247.671875 326.621094 C 257.421875 326.621094 265.328125 334.523438 265.328125 344.277344 C 265.328125 354.027344 257.421875 361.929688 247.671875 361.929688 Z M 247.671875 361.929688 " style=" stroke:none;fill-rule:nonzero;fill:rgb(81.960784%,82.745098%,83.137255%);fill-opacity:1;" />
<path d="M 406.570312 114.757812 L 141.742188 114.757812 C 132.003906 114.789062 124.117188 122.675781 124.085938 132.414062 L 124.085938 150.070312 L 424.222656 150.070312 L 424.222656 132.414062 C 424.195312 122.675781 416.308594 114.789062 406.570312 114.757812 Z M 406.570312 114.757812 " style=" stroke:none;fill-rule:nonzero;fill:rgb(73.72549%,74.509804%,75.294118%);fill-opacity:1;" />
<path d="M 124.085938 203.035156 L 282.984375 203.035156 C 292.722656 203.0625 300.609375 210.949219 300.636719 220.6875 L 300.636719 308.964844 L 406.570312 308.964844 C 416.308594 308.9375 424.195312 301.046875 424.222656 291.308594 L 424.222656 167.722656 L 124.085938 167.722656 Z M 124.085938 203.035156 " style=" stroke:none;fill-rule:nonzero;fill:rgb(73.72549%,74.509804%,75.294118%);fill-opacity:1;" />
<path d="M 124.085938 150.070312 L 424.222656 150.070312 L 424.222656 167.722656 L 124.085938 167.722656 Z M 124.085938 150.070312 " style=" stroke:none;fill-rule:nonzero;fill:rgb(100%,85.490196%,26.666667%);fill-opacity:1;" />
<path d="M 230.015625 344.277344 C 230.015625 354.027344 222.113281 361.929688 212.363281 361.929688 C 202.609375 361.929688 194.707031 354.027344 194.707031 344.277344 C 194.707031 334.523438 202.609375 326.621094 212.363281 326.621094 C 222.113281 326.621094 230.015625 334.523438 230.015625 344.277344 Z M 230.015625 344.277344 " style=" stroke:none;fill-rule:nonzero;fill:rgb(81.960784%,82.745098%,83.137255%);fill-opacity:1;" />
<path d="M 265.328125 344.277344 C 265.328125 354.027344 257.421875 361.929688 247.671875 361.929688 C 237.921875 361.929688 230.015625 354.027344 230.015625 344.277344 C 230.015625 334.523438 237.921875 326.621094 247.671875 326.621094 C 257.421875 326.621094 265.328125 334.523438 265.328125 344.277344 Z M 265.328125 344.277344 " style=" stroke:none;fill-rule:nonzero;fill:rgb(81.960784%,82.745098%,83.137255%);fill-opacity:1;" />
<path d="M 203.535156 450.207031 L 221.1875 450.207031 L 221.1875 467.863281 L 203.535156 467.863281 Z M 203.535156 450.207031 " style=" stroke:none;fill-rule:nonzero;fill:rgb(94.509804%,94.901961%,94.901961%);fill-opacity:1;" />
<path d="M 203.535156 17.65625 L 221.1875 17.65625 L 221.1875 35.3125 L 203.535156 35.3125 Z M 203.535156 17.65625 " style=" stroke:none;fill-rule:nonzero;fill:rgb(94.509804%,94.901961%,94.901961%);fill-opacity:1;" />
<path d="M 424.222656 176.550781 L 124.085938 176.550781 L 124.085938 141.242188 L 424.222656 141.242188 Z M 424.222656 176.550781 " style=" stroke:none;fill-rule:nonzero;fill:rgb(34.509804%,34.901961%,35.686275%);fill-opacity:1;" />
<path d="M 247.671875 317.792969 C 241.136719 317.816406 234.84375 320.269531 230.015625 324.679688 C 235.613281 329.660156 238.820312 336.785156 238.84375 344.277344 C 238.84375 339.402344 242.796875 335.449219 247.671875 335.449219 C 252.546875 335.449219 256.5 339.402344 256.5 344.277344 C 256.5 349.152344 252.546875 353.105469 247.671875 353.105469 C 242.796875 353.105469 238.84375 349.152344 238.84375 344.277344 C 238.820312 351.765625 235.613281 358.894531 230.015625 363.875 C 240.839844 373.710938 257.589844 372.910156 267.425781 362.089844 C 277.265625 351.265625 276.464844 334.515625 265.640625 324.679688 C 260.726562 320.210938 254.3125 317.753906 247.671875 317.792969 Z M 247.671875 317.792969 " style=" stroke:none;fill-rule:nonzero;fill:rgb(100%,65.490196%,20%);fill-opacity:1;" />
<path d="M 230.015625 324.679688 C 219.195312 315.101562 202.65625 316.113281 193.082031 326.9375 C 183.507812 337.761719 184.519531 354.296875 195.34375 363.871094 C 206.164062 373.445312 222.703125 372.433594 232.277344 361.613281 C 236.507812 356.828125 238.84375 350.664062 238.84375 344.277344 C 238.824219 336.785156 235.613281 329.65625 230.015625 324.679688 Z M 212.363281 353.101562 C 207.484375 353.101562 203.535156 349.152344 203.535156 344.277344 C 203.535156 339.398438 207.484375 335.449219 212.363281 335.449219 C 217.238281 335.449219 221.1875 339.398438 221.1875 344.277344 C 221.1875 349.152344 217.238281 353.101562 212.363281 353.101562 Z M 212.363281 353.101562 " style=" stroke:none;fill-rule:nonzero;fill:rgb(100%,38.431373%,26.27451%);fill-opacity:1;" />
<path d="M 35.808594 247.171875 L 71.121094 247.171875 L 71.121094 264.828125 L 35.808594 264.828125 Z M 35.808594 247.171875 " style=" stroke:none;fill-rule:nonzero;fill:rgb(34.509804%,34.901961%,35.686275%);fill-opacity:1;" />
<path d="M 88.777344 247.171875 L 124.085938 247.171875 L 124.085938 264.828125 L 88.777344 264.828125 Z M 88.777344 247.171875 " style=" stroke:none;fill-rule:nonzero;fill:rgb(34.509804%,34.901961%,35.686275%);fill-opacity:1;" />
<path d="M 141.742188 247.171875 L 177.050781 247.171875 L 177.050781 264.828125 L 141.742188 264.828125 Z M 141.742188 247.171875 " style=" stroke:none;fill-rule:nonzero;fill:rgb(34.509804%,34.901961%,35.686275%);fill-opacity:1;" />
<path d="M 194.707031 247.171875 L 230.015625 247.171875 L 230.015625 264.828125 L 194.707031 264.828125 Z M 194.707031 247.171875 " style=" stroke:none;fill-rule:nonzero;fill:rgb(34.509804%,34.901961%,35.686275%);fill-opacity:1;" />
<path d="M 44.636719 335.449219 L 150.566406 335.449219 L 150.566406 353.105469 L 44.636719 353.105469 Z M 44.636719 335.449219 " style=" stroke:none;fill-rule:nonzero;fill:rgb(34.509804%,34.901961%,35.686275%);fill-opacity:1;" />
</g>
</svg>